<?xml version="1.0" encoding="UTF-8" standalone="no"?>
<!-- Created with Inkscape (http://www.inkscape.org/) -->

<svg
   xmlns:dc="http://purl.org/dc/elements/1.1/"
   xmlns:cc="http://creativecommons.org/ns#"
   xmlns:rdf="http://www.w3.org/1999/02/22-rdf-syntax-ns#"
   xmlns:svg="http://www.w3.org/2000/svg"
   xmlns="http://www.w3.org/2000/svg"
   xmlns:sodipodi="http://sodipodi.sourceforge.net/DTD/sodipodi-0.dtd"
   xmlns:inkscape="http://www.inkscape.org/namespaces/inkscape"
   id="svg2"
   version="1.1"
   inkscape:version="0.91 r13725"
   xml:space="preserve"
   width="629.05725"
   height="458.26883"
   viewBox="0 0 629.05725 458.26883"
   sodipodi:docname="owl_neutral_sign.svg"><metadata
     id="metadata8"><rdf:RDF><cc:Work
         rdf:about=""><dc:format>image/svg+xml</dc:format><dc:type
           rdf:resource="http://purl.org/dc/dcmitype/StillImage" /><dc:title></dc:title></cc:Work></rdf:RDF></metadata><defs
     id="defs6" /><sodipodi:namedview
     pagecolor="#ffffff"
     bordercolor="#666666"
     borderopacity="1"
     objecttolerance="10"
     gridtolerance="10"
     guidetolerance="10"
     inkscape:pageopacity="0"
     inkscape:pageshadow="2"
     inkscape:window-width="1680"
     inkscape:window-height="991"
     id="namedview4"
     showgrid="false"
     fit-margin-top="0"
     fit-margin-left="0"
     fit-margin-right="0"
     fit-margin-bottom="0"
     inkscape:zoom="1.2882763"
     inkscape:cx="406.6353"
     inkscape:cy="235.20367"
     inkscape:window-x="0"
     inkscape:window-y="0"
     inkscape:window-maximized="1"
     inkscape:current-layer="g10" /><g
     id="g10"
     inkscape:groupmode="layer"
     inkscape:label="ink_ext_XXXXXX"
     transform="matrix(1.25,0,0,-1.25,0,582.57397)"><path
       inkscape:connector-curvature="0"
       id="path16"
       style="fill:#3a1e16;fill-opacity:1;fill-rule:nonzero;stroke:none"
       d="m 346.503,132.72 c 0.469,-0.036 0.936,-0.073 1.431,-0.098 -0.515,0.027 -1.01,0.076 -1.504,0.126 0.024,-0.01 0.049,-0.019 0.073,-0.028" /><path
       inkscape:connector-curvature="0"
       id="path18"
       style="fill:#3a1e16;fill-opacity:1;fill-rule:nonzero;stroke:none"
       d="m 124.919,181.264 c 0.463,12.975 16.956,34.5 12.963,40.077 0.026,-0.166 0.044,-0.335 0.056,-0.507 0.535,-8.073 -14.079,-25.403 -14.716,-36.696 0.314,-1.053 0.861,-2.018 1.697,-2.874" /><path
       inkscape:connector-curvature="0"
       id="path20"
       style="fill:#3a1e16;fill-opacity:1;fill-rule:nonzero;stroke:none"
       d="m 320.006,142.221 c -18.024,5.335 -23.471,5.597 -42.59,8.55 -30.343,4.688 -59.722,12.676 -92.862,14.733 C 140.57,168.236 126.479,153.437 94.4219,144.391 60.1969,134.738 32.0922,113.93 0,102.614 l 0,-3.1699 c 32.6008,11.2119 60.9813,32.4259 95.6379,42.1989 32.0571,9.046 46.1481,23.847 90.1321,21.115 33.14,-2.059 62.519,-10.046 92.863,-14.735 19.119,-2.951 24.564,-3.214 42.589,-8.548 9.829,-2.911 14.591,-5.499 22.711,-6.504 -0.693,0.154 -1.369,0.34 -2.022,0.562 -7.48,1.875 -13.131,6.089 -21.905,8.688" /><path
       inkscape:connector-curvature="0"
       id="path22"
       style="fill:#3a1e16;fill-opacity:1;fill-rule:nonzero;stroke:none"
       d="m 380.724,177.74 c 0.306,-1.344 -0.251,-2.58 -1.453,-3.733 -1.228,-1.691 -4.034,-3.046 -7.717,-4.187 -12.675,-4.78 -34.418,-8.115 -39.226,-12.485 -5.932,-5.388 -7.509,-9.407 -5.251,-13.011 -0.607,2.63 1.494,5.747 6.467,10.264 7.06,6.417 51.466,13.455 47.18,23.152" /><path
       inkscape:connector-curvature="0"
       id="path24"
       style="fill:#6f4420;fill-opacity:1;fill-rule:nonzero;stroke:none"
       d="M 137.882,221.341 C 108.524,210.702 112.953,182.627 78.4813,166.775 61.9859,159.185 44.8512,151.047 27.8113,143.037 19.3098,139.035 9.86602,134.967 0,130.489 l 0,-3.135 c 10.0313,4.017 19.2906,7.719 28.1719,11.9 17.0394,8.01 34.1742,16.147 50.6699,23.738 34.4722,15.852 31.4392,46.903 59.0402,58.349" /><path
       inkscape:connector-curvature="0"
       id="path26"
       style="fill:#6f4420;fill-opacity:1;fill-rule:nonzero;stroke:none"
       d="m 201.584,176.082 c -16.061,2.048 -60.838,-1.818 -72.721,2.74 -1.717,0.659 -3.008,1.484 -3.944,2.442 -0.836,0.856 -1.383,1.821 -1.697,2.874 -0.228,-4.037 1.326,-7.304 6.001,-9.099 11.883,-4.559 56.661,-0.692 72.722,-2.74 25.984,-3.315 71.631,-15.426 95.039,-12.024 17.793,2.588 47.288,9.053 68.801,13.99 -21.405,-3.479 -51.162,-7.588 -69.16,-10.206 -23.409,-3.402 -69.057,8.708 -95.041,12.023" /><path
       inkscape:connector-curvature="0"
       id="path28"
       style="fill:#6f4420;fill-opacity:1;fill-rule:nonzero;stroke:none"
       d="m 217.30938,260.13142 c 3.84057,-0.34116 6.95084,-0.15169 8.72846,0.9472 -2.05613,-0.81072 -5.11296,-1.04912 -8.72846,-0.9472" /><path
       inkscape:connector-curvature="0"
       id="path30"
       style="fill:#6f4420;fill-opacity:1;fill-rule:nonzero;stroke:none"
       d="m 346.43,132.748 c -1.595,0.159 -3.092,0.428 -4.519,0.785 0.653,-0.222 1.329,-0.408 2.022,-0.562 0.977,-0.217 1.984,-0.383 3.055,-0.44 -0.164,0.063 -0.322,0.126 -0.485,0.189 -0.024,0.009 -0.049,0.018 -0.073,0.028" /><path
       inkscape:connector-curvature="0"
       id="path32"
       style="fill:#593117;fill-opacity:1;fill-rule:nonzero;stroke:none"
       d="m 380.724,177.74 c -4.189,-0.987 -9.293,-2.179 -14.939,-3.475 -21.513,-4.937 -51.008,-11.402 -68.801,-13.99 -23.408,-3.402 -69.055,8.709 -95.039,12.024 -16.061,2.048 -60.839,-1.819 -72.722,2.74 -4.675,1.795 -6.229,5.062 -6.001,9.099 0.637,11.293 15.251,28.623 14.716,36.696 -0.012,0.173 -0.03,0.342 -0.056,0.507 C 110.281,209.895 113.314,178.844 78.8418,162.992 62.3461,155.401 45.2113,147.264 28.1719,139.254 19.2906,135.073 10.0313,131.371 0,127.354 l 0,-24.74 c 32.0922,11.316 60.1969,32.124 94.4219,41.777 32.0571,9.046 46.1481,23.845 90.1321,21.113 33.14,-2.057 62.519,-10.045 92.862,-14.733 19.119,-2.953 24.566,-3.215 42.59,-8.55 8.774,-2.599 14.425,-6.813 21.905,-8.688 1.427,-0.357 2.924,-0.626 4.519,-0.785 0.494,-0.05 0.989,-0.099 1.504,-0.126 -11.19,4.248 -18.363,7.722 -20.857,11.702 -2.258,3.604 -0.681,7.623 5.251,13.011 4.808,4.37 26.551,7.705 39.226,12.485 3.384,1.277 6.122,2.657 7.717,4.187 1.202,1.153 1.759,2.389 1.453,3.733" /><path
       inkscape:connector-curvature="0"
       id="path34"
       style="fill:#6f4420;fill-opacity:1;fill-rule:nonzero;stroke:none"
       d="m 311.51273,284.50258 c 1.58425,10.42201 21.09998,40.94986 16.37653,43.97775 -3.81878,2.43248 -24.34652,-5.39622 -32.14367,-8.82683 -11.26571,10.15272 -28.70553,8.05409 -47.8915,11.56192 -18.3695,3.35855 -33.18842,11.59711 -46.80816,6.75061 -6.26876,5.20127 -21.11241,19.39844 -25.79347,18.42139 -5.51153,-1.16574 0.44095,-34.60762 -1.76918,-44.9192 -3.23037,-14.89387 -11.73952,-25.83287 -14.95453,-40.75394 l 0.47001,0.7192 c -10.1899,-62.23313 15.77929,-90.88596 60.55801,-99.073 44.4236,-8.12212 77.94565,9.23897 90.66243,69.76885 l 0.20609,-0.89669 c 2.26117,15.07515 -1.15473,28.19036 1.08792,43.26992" /><path
       inkscape:connector-curvature="0"
       id="path36"
       style="fill:#c2955c;fill-opacity:1;fill-rule:nonzero;stroke:none"
       d="m 268.86834,191.58714 c -4.26214,-23.31157 -23.18596,-24.19143 -47.86389,-19.67948 -24.66611,4.50979 -45.74124,12.70278 -41.47911,36.01436 4.26232,23.31256 27.71914,38.53807 52.3892,34.02756 24.67202,-4.51086 41.2161,-27.04988 36.9538,-50.36244" /><path
       inkscape:connector-curvature="0"
       id="path38"
       style="fill:#6f4420;fill-opacity:1;fill-rule:nonzero;stroke:none"
       d="m 223.85792,203.7446 -0.0994,0.0181 c -4.08823,0.74747 -6.76395,3.98856 -6.9574,7.46199 -0.039,0.65976 0.51547,1.46823 1.18652,1.51327 0.67193,0.0388 1.28368,-0.36278 1.31485,-1.03739 0.16121,-2.79355 2.84207,-4.24945 5.07433,-4.67283 2.53927,-0.47341 5.75302,0.14568 6.89796,2.59368 0.28512,0.61983 1.0165,0.89477 1.61862,0.61288 0.61965,-0.28611 0.79764,-1.47552 0.50751,-2.08934 -1.67561,-3.62678 -6.03617,-5.04159 -9.54304,-4.40042" /><path
       inkscape:connector-curvature="0"
       id="path40"
       style="fill:#6f4420;fill-opacity:1;fill-rule:nonzero;stroke:none"
       d="m 198.20122,208.4355 -0.0944,0.0172 c -4.08135,0.74621 -6.75805,3.98747 -6.94953,7.46055 -0.04,0.65994 0.52334,1.46679 1.18553,1.51345 0.66702,0.0397 1.27779,-0.3617 1.31092,-1.03668 0.16908,-2.79498 2.8529,-4.25142 5.07827,-4.67354 2.54024,-0.47359 5.74908,0.14641 6.89205,2.59476 0.27923,0.62091 1.01455,0.89513 1.62847,0.61108 0.6039,-0.28323 0.80451,-1.47677 0.51241,-2.09024 -1.69429,-3.62336 -6.04895,-5.03926 -9.56369,-4.39664" /><path
       inkscape:connector-curvature="0"
       id="path42"
       style="fill:#6f4420;fill-opacity:1;fill-rule:nonzero;stroke:none"
       d="m 249.492,199.05784 -0.0865,0.0158 c -4.08232,0.74639 -6.76591,3.98891 -6.97609,7.4654 -0.0222,0.65671 0.53613,1.46445 1.19733,1.5113 0.67784,0.0377 1.27582,-0.36135 1.32569,-1.03938 0.1612,-2.79355 2.83027,-4.24728 5.06449,-4.67102 2.53828,-0.47323 5.75793,0.14478 6.90288,2.59278 0.28611,0.61965 1.01945,0.89423 1.61862,0.61288 0.60489,-0.28342 0.80255,-1.47641 0.5075,-2.08934 -1.68544,-3.62498 -6.03616,-5.04159 -9.55385,-4.39844" /><path
       inkscape:connector-curvature="0"
       id="path44"
       style="fill:#6f4420;fill-opacity:1;fill-rule:nonzero;stroke:none"
       d="m 233.40971,185.82448 -0.0944,0.0172 c -4.08824,0.74747 -6.86015,3.40127 -7.05835,6.86541 -0.0442,0.67596 0.46886,1.17992 1.1339,1.21996 0.67695,0.0439 1.24688,-0.50854 1.28064,-1.18566 0.15941,-2.80338 2.82941,-4.31321 5.04931,-4.73738 2.55974,-0.47817 5.76415,0.10095 6.89864,2.55289 0.27806,0.62011 1.0146,0.87886 1.6329,0.57978 0.61277,-0.27367 0.88319,-0.8741 0.6089,-1.48472 -1.68437,-3.61908 -5.93185,-4.47105 -9.45151,-3.82754" /><path
       inkscape:connector-curvature="0"
       id="path46"
       style="fill:#6f4420;fill-opacity:1;fill-rule:nonzero;stroke:none"
       d="m 208.57538,190.36502 -0.0994,0.0182 c -4.09807,0.74926 -6.87981,3.40487 -7.06326,6.86631 -0.048,0.67668 0.45803,1.18188 1.13783,1.21923 0.67203,0.0448 1.24983,-0.50908 1.28655,-1.18674 0.14661,-2.80104 2.81857,-4.31123 5.05717,-4.73881 2.53712,-0.47403 5.74644,0.10418 6.87897,2.55649 0.29478,0.61705 1.02248,0.87742 1.63486,0.57942 0.59802,-0.27098 0.895,-0.87626 0.60103,-1.48329 -1.68042,-3.61979 -5.91906,-4.47338 -9.4338,-3.83078" /><path
       inkscape:connector-curvature="0"
       id="path48"
       style="fill:#ffffff;fill-opacity:1;fill-rule:nonzero;stroke:none"
       d="m 273.39178,306.71897 c -12.56767,2.29778 -24.5064,-1.5223 -31.67516,-11.0961 -3.31544,11.49066 -13.11634,19.28548 -25.70271,21.58669 -17.67205,3.23103 -33.6455,-7.18293 -36.87708,-24.85793 -3.23247,-17.67993 8.02327,-33.06923 25.69533,-36.30028 12.57062,-2.29832 24.50469,1.51854 31.67346,11.09234 3.31774,-11.51141 13.13152,-19.31367 25.69919,-21.61146 17.67698,-3.23193 33.66535,7.18031 36.89962,24.87007 3.23429,17.68977 -8.03567,33.08473 -25.71265,36.31667" /><path
       inkscape:connector-curvature="0"
       id="path50"
       style="fill:#f68519;fill-opacity:1;fill-rule:nonzero;stroke:none"
       d="m 244.59434,268.7809 c 1.33154,-0.99064 -10.62492,-14.2098 -10.62492,-14.2098 0,0 -4.19091,13.0353 -4.07584,17.26762 4.20867,2.85257 11.48082,2.77236 14.70076,-3.05782" /><path
       inkscape:connector-curvature="0"
       id="path52"
       style="fill:#3a1e16;fill-opacity:1;fill-rule:nonzero;stroke:none"
       d="m 183.84143,241.47053 c -5.78362,15.36951 -13.15345,26.86196 -18.2761,29.28202 -0.31831,0.27779 -0.64952,0.48737 -1.01135,0.61978 -0.47078,0.15666 -0.98071,0.18116 -1.50358,0.0663 -0.007,0.002 -0.0128,6.7e-4 -0.0326,-0.003 -0.34268,-0.0473 -0.69149,-0.19378 -1.00959,-0.37337 -4.80062,-2.48308 -10.90482,-14.77129 -14.7701,-30.55439 -4.60401,-18.7683 -4.282,-35.36667 0.67775,-37.07006 3.05374,-1.05879 7.14452,3.73861 10.92071,11.93879 2.40266,-10.34925 5.9063,-16.97885 9.32521,-16.44602 2.98856,0.46421 5.27415,6.24643 6.39784,14.89516 5.32889,-9.25511 10.62665,-14.38062 13.76655,-12.43479 4.73043,2.96489 2.7197,20.91319 -4.4848,40.07942" /><path
       inkscape:connector-curvature="0"
       id="path56"
       style="fill:#100f0d;fill-opacity:1;fill-rule:nonzero;stroke:none"
       d="m 227.32982,283.58406 c -1.72118,-9.41396 -10.74699,-15.65033 -20.16192,-13.92897 -9.41394,1.72119 -15.64916,10.74779 -13.92799,20.16173 1.72102,9.41298 10.74681,15.64936 20.16076,13.92817 9.41494,-1.72136 15.65016,-10.74797 13.92915,-20.16093" /><path
       inkscape:connector-curvature="0"
       id="path58"
       style="fill:#ffffff;fill-opacity:1;fill-rule:nonzero;stroke:none"
       d="m 208.86039,293.73535 c -0.26475,-1.44799 -1.65402,-2.40778 -3.10006,-2.14339 -1.44996,0.2651 -2.40875,1.65419 -2.14402,3.10219 0.26474,1.44799 1.65303,2.40796 3.10299,2.14286 1.44604,-0.26439 2.40582,-1.65366 2.14109,-3.10166" /><path
       inkscape:connector-curvature="0"
       id="path60"
       style="fill:#100f0d;fill-opacity:1;fill-rule:nonzero;stroke:none"
       d="m 285.0205,273.03627 c -1.72117,-9.41394 -10.74698,-15.65033 -20.16093,-13.92914 -9.41297,1.721 -15.65113,10.74815 -13.92995,20.1621 1.721,9.41296 10.74976,15.64881 20.16272,13.92781 9.41395,-1.72119 15.64917,-10.74779 13.92816,-20.16077" /><path
       inkscape:connector-curvature="0"
       id="path62"
       style="fill:#ffffff;fill-opacity:1;fill-rule:nonzero;stroke:none"
       d="m 265.24078,283.42713 c -0.26474,-1.44799 -1.65303,-2.40796 -3.10201,-2.14304 -1.44799,0.26475 -2.40778,1.65402 -2.14304,3.10201 0.26475,1.448 1.65402,2.40779 3.10201,2.14304 1.44898,-0.26491 2.40779,-1.65401 2.14304,-3.10201" /><path
       inkscape:connector-curvature="0"
       id="path64"
       style="fill:#f68519;fill-opacity:1;fill-rule:evenodd;stroke:none"
       d="m 251.11315,169.99717 -1.44586,0.0763 c -1.19759,0.0551 -2.22598,-1.03249 -2.28969,-2.42067 l -0.47496,-10.38187 c -0.0635,-1.3862 0.86087,-2.56973 2.05809,-2.62698 l 1.44534,-0.068 c 1.19507,-0.0579 2.2266,1.03034 2.2913,2.41834 l 0.47122,10.38357 c 0.0669,1.38353 -0.86258,2.56598 -2.05542,2.61939 z m -6.81226,0.3326 c 1.19525,-0.057 2.12019,-1.23649 2.05416,-2.62628 l -0.47334,-10.38419 c -0.0636,-1.38818 -1.09193,-2.47497 -2.28701,-2.41709 l -1.44872,0.0717 c -1.18998,0.058 -2.12001,1.23747 -2.0547,2.62333 l 0.47221,10.38338 c 0.0673,1.3855 1.09587,2.47425 2.29059,2.41441 l 1.44686,-0.0649 0,0 z m -6.81253,0.3255 -1.44614,0.0692 c -1.19858,0.0551 -2.22698,-1.03231 -2.29157,-2.41422 l -0.47372,-10.38617 c -0.0615,-1.38656 0.86293,-2.56401 2.058,-2.62189 l 1.4456,-0.0722 c 1.19489,-0.0589 2.22563,1.03053 2.28602,2.41727 l 0.48181,10.38062 c 0.0586,1.38908 -0.86615,2.56866 -2.06005,2.62734 l 0,0" /><path
       inkscape:connector-curvature="0"
       id="path66"
       style="fill:#f68519;fill-opacity:1;fill-rule:evenodd;stroke:none"
       d="m 195.23361,175.56873 -1.18204,-10.32703 c -0.15723,-1.38108 0.68871,-2.6176 1.87622,-2.75187 l 1.43898,-0.16241 c 1.19055,-0.13233 2.29261,0.88839 2.4498,2.26746 l 1.17904,10.3271 c 0.15818,1.37905 -0.68574,2.61654 -1.87424,2.75083 l -1.44113,0.15544 c -1.18544,0.13724 -2.29051,-0.88343 -2.44663,-2.25952 z m 9.22466,1.50604 1.44092,-0.16545 c 1.18657,-0.13125 2.03052,-1.36673 1.87636,-2.74487 l -1.18106,-10.32804 c -0.15619,-1.3791 -1.26116,-2.39577 -2.44575,-2.26557 l -1.44301,0.1615 c -1.18757,0.13127 -2.0315,1.36776 -1.87526,2.74985 l 1.18204,10.32702 c 0.15629,1.38411 1.25728,2.40083 2.44576,2.26556 l 0,0 z m 6.77894,-0.75754 c -1.18858,0.13029 -2.28963,-0.88945 -2.45183,-2.26943 l -1.17301,-10.3262 c -0.15914,-1.37704 0.68375,-2.6155 1.87325,-2.74981 l 1.43904,-0.15941 c 1.1906,-0.13032 2.28958,0.88645 2.44878,2.26649 l 1.18102,10.32604 c 0.15512,1.37612 -0.68579,2.61355 -1.8783,2.74792 l -1.43895,0.1644 0,0" /><path
       inkscape:connector-curvature="0"
       id="path68"
       style="fill:#1b1919;fill-opacity:1;fill-rule:evenodd;stroke:none"
       d="m 245.25367,314.9631 c -23.9795,4.38425 -44.67315,14.85275 -44.67315,14.85275 l 4.79899,26.2479 c 30.65583,-5.60491 61.31363,-11.21018 91.97043,-16.81527 l -4.79898,-26.2479 c 0,0 -21.43598,-2.7658 -47.29729,1.96252" /><path
       inkscape:connector-curvature="0"
       id="path70"
       style="fill:#2e2d2d;fill-opacity:1;fill-rule:evenodd;stroke:none"
       d="m 323.33652,338.11323 -68.77023,30.57605 -75.14514,-4.26352 68.77533,-30.57596 75.14004,4.26343" /><path
       inkscape:connector-curvature="0"
       id="path72"
       style="fill:#f68519;fill-opacity:1;fill-rule:evenodd;stroke:none"
       d="m 249.77147,351.56572 52.24847,-15.33803 0.38331,3.36618 -52.24847,15.33805 -0.38331,-3.3662 z" /><path
       inkscape:connector-curvature="0"
       id="path74"
       style="fill:#f68519;fill-opacity:1;fill-rule:evenodd;stroke:none"
       d="m 299.25063,317.07539 3.02109,-0.0846 0.63311,22.61734 -3.02109,0.0846 -0.63311,-22.61733 z" /><path
       inkscape:connector-curvature="0"
       id="path76"
       style="fill:#f68519;fill-opacity:1;fill-rule:nonzero;stroke:none"
       d="m 302.46173,314.4778 c 0.58528,0.56883 0.96462,1.35362 0.99399,2.23513 0.0603,1.811 -1.35989,3.32914 -3.17289,3.38955 -1.80799,0.0602 -3.32512,-1.36003 -3.38546,-3.17102 -0.0277,-0.83153 0.2691,-1.59583 0.76146,-2.19057 l -3.71298,-14.77155 0.044,-0.002 c -0.0126,-0.0786 -0.0492,-0.15544 -0.0519,-0.2364 -0.0585,-1.75504 2.42872,-3.26171 5.554,-3.36583 3.12826,-0.10424 5.71023,1.23353 5.76871,2.98855 0.003,0.081 -0.0268,0.15994 -0.035,0.2393 l 0.043,-0.002 -2.80685,14.88573" /><rect
       style="fill:#ff7f2a;fill-rule:evenodd;stroke:none;stroke-width:0.80000001px;stroke-linecap:butt;stroke-linejoin:miter;stroke-opacity:1"
       id="rect3558"
       width="7.9038458"
       height="211.64743"
       x="221.77034"
       y="-508.29846"
       transform="matrix(0.92527943,-0.37928614,-0.37928614,-0.92527943,0,0)" /><rect
       style="fill:#ffffff;fill-rule:evenodd;stroke:#000000;stroke-width:0.80000001px;stroke-linecap:butt;stroke-linejoin:miter;stroke-opacity:1"
       id="rect3611"
       width="184.72556"
       height="114.16666"
       x="130.43697"
       y="-556.59973"
       transform="matrix(0.92527943,-0.37928614,-0.37928614,-0.92527943,0,0)" /><path
       inkscape:connector-curvature="0"
       id="path54"
       style="fill:#3a1e16;fill-opacity:1;fill-rule:nonzero;stroke:none"
       d="m 319.40538,207.94965 c -14.95241,6.78625 -25.92999,14.89484 -28.0073,20.17117 -0.25707,0.33884 -0.4421,0.67652 -0.55148,1.05015 -0.12229,0.47159 -0.11404,0.98484 0.034,1.50278 -0.003,0.008 10e-4,0.01 0.004,0.0361 0.0721,0.33216 0.24261,0.66673 0.44351,0.97036 2.79313,4.63239 15.45679,9.91468 31.4608,12.72785 19.03313,3.34798 35.57061,1.93761 36.94648,-3.13727 0.85309,-3.11331 -4.20391,-6.87951 -12.63538,-10.10661 10.16849,-3.08517 16.55008,-7.01516 15.79215,-10.39131 -0.65877,-2.95792 -6.58402,-4.84255 -15.28435,-5.40274 8.88087,-5.92596 13.64294,-11.54658 11.4926,-14.54797 -3.27084,-4.52573 -21.0467,-1.33154 -39.69472,7.12754" /><flowRoot
       xml:space="preserve"
       id="flowRoot4620"
       style="fill:black;stroke:none;stroke-opacity:1;stroke-width:1px;stroke-linejoin:miter;stroke-linecap:butt;fill-opacity:1;font-family:sans-serif;font-style:normal;font-weight:normal;font-size:40px;line-height:125%;letter-spacing:0px;word-spacing:0px"><flowRegion
         id="flowRegion4622"><rect
           id="rect4624"
           width="157.57489"
           height="104.79118"
           x="447.10907"
           y="67.824638" /></flowRegion><flowPara
         id="flowPara4626"></flowPara></flowRoot><rect
       style="fill:#aa4400;fill-opacity:1;stroke:none"
       id="rect4853-3"
       width="96.031929"
       height="9.5772781"
       x="68.787453"
       y="-355.78375"
       transform="matrix(0.98880849,-0.14919036,-0.36805924,-0.92980234,0,0)" /></g></svg>