<?xml version="1.0" encoding="UTF-8" standalone="no"?>
<svg
   xmlns:dc="http://purl.org/dc/elements/1.1/"
   xmlns:cc="http://creativecommons.org/ns#"
   xmlns:rdf="http://www.w3.org/1999/02/22-rdf-syntax-ns#"
   xmlns:svg="http://www.w3.org/2000/svg"
   xmlns="http://www.w3.org/2000/svg"
   id="svg2"
   version="1.1"
   xml:space="preserve"
   width="630"
   height="460"
   viewBox="0 0 630 460"><metadata
     id="metadata8"><rdf:RDF><cc:Work
         rdf:about=""><dc:format>image/svg+xml</dc:format><dc:type
           rdf:resource="http://purl.org/dc/dcmitype/StillImage" /><dc:title></dc:title></cc:Work></rdf:RDF></metadata><defs
     id="defs6" /><g
     id="g10"
     transform="matrix(1.25,0,0,-1.25,0,584.30513)"><path
       id="path16"
       style="fill:#3a1e16;fill-opacity:1;fill-rule:nonzero;stroke:none"
       d="m 346.503,132.72 c 0.469,-0.036 0.936,-0.073 1.431,-0.098 -0.515,0.027 -1.01,0.076 -1.504,0.126 0.024,-0.01 0.049,-0.019 0.073,-0.028" /><path
       id="path18"
       style="fill:#3a1e16;fill-opacity:1;fill-rule:nonzero;stroke:none"
       d="m 124.919,181.264 c 0.463,12.975 16.956,34.5 12.963,40.077 0.026,-0.166 0.044,-0.335 0.056,-0.507 0.535,-8.073 -14.079,-25.403 -14.716,-36.696 0.314,-1.053 0.861,-2.018 1.697,-2.874" /><path
       id="path20"
       style="fill:#3a1e16;fill-opacity:1;fill-rule:nonzero;stroke:none"
       d="m 320.006,142.221 c -18.024,5.335 -23.471,5.597 -42.59,8.55 -30.343,4.688 -59.722,12.676 -92.862,14.733 C 140.57,168.236 126.479,153.437 94.4219,144.391 60.1969,134.738 32.0922,113.93 0,102.614 l 0,-3.1699 c 32.6008,11.2119 60.9813,32.4259 95.6379,42.1989 32.0571,9.046 46.1481,23.847 90.1321,21.115 33.14,-2.059 62.519,-10.046 92.863,-14.735 19.119,-2.951 24.564,-3.214 42.589,-8.548 9.829,-2.911 14.591,-5.499 22.711,-6.504 -0.693,0.154 -1.369,0.34 -2.022,0.562 -7.48,1.875 -13.131,6.089 -21.905,8.688" /><path
       id="path22"
       style="fill:#3a1e16;fill-opacity:1;fill-rule:nonzero;stroke:none"
       d="m 380.724,177.74 c 0.306,-1.344 -0.251,-2.58 -1.453,-3.733 -1.228,-1.691 -4.034,-3.046 -7.717,-4.187 -12.675,-4.78 -34.418,-8.115 -39.226,-12.485 -5.932,-5.388 -7.509,-9.407 -5.251,-13.011 -0.607,2.63 1.494,5.747 6.467,10.264 7.06,6.417 51.466,13.455 47.18,23.152" /><path
       id="path24"
       style="fill:#6f4420;fill-opacity:1;fill-rule:nonzero;stroke:none"
       d="M 137.882,221.341 C 108.524,210.702 112.953,182.627 78.4813,166.775 61.9859,159.185 44.8512,151.047 27.8113,143.037 19.3098,139.035 9.86602,134.967 0,130.489 l 0,-3.135 c 10.0313,4.017 19.2906,7.719 28.1719,11.9 17.0394,8.01 34.1742,16.147 50.6699,23.738 34.4722,15.852 31.4392,46.903 59.0402,58.349" /><path
       id="path26"
       style="fill:#6f4420;fill-opacity:1;fill-rule:nonzero;stroke:none"
       d="m 201.584,176.082 c -16.061,2.048 -60.838,-1.818 -72.721,2.74 -1.717,0.659 -3.008,1.484 -3.944,2.442 -0.836,0.856 -1.383,1.821 -1.697,2.874 -0.228,-4.037 1.326,-7.304 6.001,-9.099 11.883,-4.559 56.661,-0.692 72.722,-2.74 25.984,-3.315 71.631,-15.426 95.039,-12.024 17.793,2.588 47.288,9.053 68.801,13.99 -21.405,-3.479 -51.162,-7.588 -69.16,-10.206 -23.409,-3.402 -69.057,8.708 -95.041,12.023" /><path
       id="path28"
       style="fill:#6f4420;fill-opacity:1;fill-rule:nonzero;stroke:none"
       d="m 371.554,169.82 c 3.683,1.141 6.489,2.496 7.717,4.187 -1.595,-1.53 -4.333,-2.91 -7.717,-4.187" /><path
       id="path30"
       style="fill:#6f4420;fill-opacity:1;fill-rule:nonzero;stroke:none"
       d="m 346.43,132.748 c -1.595,0.159 -3.092,0.428 -4.519,0.785 0.653,-0.222 1.329,-0.408 2.022,-0.562 0.977,-0.217 1.984,-0.383 3.055,-0.44 -0.164,0.063 -0.322,0.126 -0.485,0.189 -0.024,0.009 -0.049,0.018 -0.073,0.028" /><path
       id="path32"
       style="fill:#593117;fill-opacity:1;fill-rule:nonzero;stroke:none"
       d="m 380.724,177.74 c -4.189,-0.987 -9.293,-2.179 -14.939,-3.475 -21.513,-4.937 -51.008,-11.402 -68.801,-13.99 -23.408,-3.402 -69.055,8.709 -95.039,12.024 -16.061,2.048 -60.839,-1.819 -72.722,2.74 -4.675,1.795 -6.229,5.062 -6.001,9.099 0.637,11.293 15.251,28.623 14.716,36.696 -0.012,0.173 -0.03,0.342 -0.056,0.507 C 110.281,209.895 113.314,178.844 78.8418,162.992 62.3461,155.401 45.2113,147.264 28.1719,139.254 19.2906,135.073 10.0313,131.371 0,127.354 l 0,-24.74 c 32.0922,11.316 60.1969,32.124 94.4219,41.777 32.0571,9.046 46.1481,23.845 90.1321,21.113 33.14,-2.057 62.519,-10.045 92.862,-14.733 19.119,-2.953 24.566,-3.215 42.59,-8.55 8.774,-2.599 14.425,-6.813 21.905,-8.688 1.427,-0.357 2.924,-0.626 4.519,-0.785 0.494,-0.05 0.989,-0.099 1.504,-0.126 -11.19,4.248 -18.363,7.722 -20.857,11.702 -2.258,3.604 -0.681,7.623 5.251,13.011 4.808,4.37 26.551,7.705 39.226,12.485 3.384,1.277 6.122,2.657 7.717,4.187 1.202,1.153 1.759,2.389 1.453,3.733" /><path
       id="path34"
       style="fill:#6f4420;fill-opacity:1;fill-rule:nonzero;stroke:none"
       d="m 344.649,288.889 c -0.316,10.537 13.391,44.077 8.2,46.206 -4.194,1.706 -22.979,-9.687 -30.032,-14.464 -12.908,7.961 -29.686,2.76 -49.19,2.76 -18.674,0 -34.733,5.439 -47.259,-1.778 -7.102,3.989 -24.257,15.285 -28.686,13.482 -5.212,-2.138 6.658,-33.964 6.338,-44.505 -0.499,-15.232 -6.902,-27.523 -7.381,-42.779 l 0.333,0.792 c 1.169,-63.051 31.868,-86.566 77.389,-86.566 45.16,0 75.013,23.107 76.636,84.937 l 0.364,-0.845 c -0.487,15.236 -6.206,27.523 -6.712,42.76" /><path
       id="path36"
       style="fill:#c2955c;fill-opacity:1;fill-rule:nonzero;stroke:none"
       d="m 319.411,189.819 c 0,-23.698 -18.457,-27.967 -43.544,-27.967 -25.075,0 -47.28,4.269 -47.28,27.967 0,23.699 20.336,42.895 45.415,42.895 25.081,0 45.409,-19.196 45.409,-42.895" /><path
       id="path38"
       style="fill:#6f4420;fill-opacity:1;fill-rule:nonzero;stroke:none"
       d="m 272.948,193.683 -0.101,0 c -4.156,0 -7.371,2.707 -8.186,6.089 -0.157,0.642 0.243,1.537 0.895,1.702 0.654,0.159 1.328,-0.126 1.48,-0.784 0.661,-2.719 3.56,-3.669 5.832,-3.684 2.583,-0.009 5.633,1.178 6.319,3.792 0.169,0.661 0.839,1.063 1.482,0.894 0.661,-0.17 1.05,-1.308 0.875,-1.964 -0.996,-3.869 -5.031,-6.045 -8.596,-6.045" /><path
       id="path40"
       style="fill:#6f4420;fill-opacity:1;fill-rule:nonzero;stroke:none"
       d="m 246.866,193.683 -0.096,0 c -4.149,0 -7.365,2.707 -8.178,6.089 -0.158,0.642 0.251,1.537 0.894,1.702 0.649,0.159 1.322,-0.126 1.476,-0.784 0.669,-2.719 3.571,-3.669 5.836,-3.684 2.584,-0.009 5.629,1.178 6.313,3.792 0.163,0.661 0.837,1.063 1.492,0.894 0.645,-0.17 1.057,-1.308 0.88,-1.964 -1.015,-3.869 -5.044,-6.045 -8.617,-6.045" /><path
       id="path42"
       style="fill:#6f4420;fill-opacity:1;fill-rule:nonzero;stroke:none"
       d="m 299.007,193.683 -0.088,0 c -4.15,0 -7.373,2.707 -8.205,6.089 -0.14,0.642 0.264,1.537 0.906,1.702 0.66,0.159 1.32,-0.126 1.491,-0.784 0.661,-2.719 3.548,-3.669 5.822,-3.684 2.582,-0.009 5.638,1.178 6.324,3.792 0.17,0.661 0.842,1.063 1.482,0.894 0.646,-0.17 1.055,-1.308 0.875,-1.964 -1.006,-3.869 -5.031,-6.045 -8.607,-6.045" /><path
       id="path44"
       style="fill:#6f4420;fill-opacity:1;fill-rule:nonzero;stroke:none"
       d="m 285.567,177.773 -0.096,0 c -4.156,0 -7.36,2.112 -8.178,5.484 -0.165,0.657 0.249,1.245 0.896,1.404 0.658,0.165 1.318,-0.276 1.473,-0.936 0.661,-2.729 3.559,-3.734 5.819,-3.752 2.604,-0.01 5.652,1.136 6.327,3.752 0.162,0.66 0.84,1.047 1.502,0.864 0.652,-0.159 1.026,-0.701 0.866,-1.351 -1.006,-3.863 -5.031,-5.465 -8.609,-5.465" /><path
       id="path46"
       style="fill:#6f4420;fill-opacity:1;fill-rule:nonzero;stroke:none"
       d="m 260.321,177.773 -0.101,0 c -4.166,0 -7.38,2.112 -8.183,5.484 -0.169,0.657 0.238,1.245 0.9,1.404 0.653,0.165 1.321,-0.276 1.479,-0.936 0.648,-2.729 3.548,-3.734 5.827,-3.752 2.581,-0.01 5.634,1.136 6.307,3.752 0.179,0.66 0.848,1.047 1.504,0.864 0.637,-0.159 1.038,-0.701 0.858,-1.351 -1.002,-3.863 -5.018,-5.465 -8.591,-5.465" /><path
       id="path48"
       style="fill:#ffffff;fill-opacity:1;fill-rule:nonzero;stroke:none"
       d="m 303.154,303.887 c -12.776,0 -23.833,-5.905 -29.163,-16.612 -5.328,10.707 -16.371,16.612 -29.166,16.612 -17.965,0 -31.805,-13.117 -31.805,-31.085 0,-17.973 13.84,-31.087 31.805,-31.087 12.779,0 23.832,5.901 29.162,16.608 5.334,-10.727 16.391,-16.637 29.167,-16.637 17.97,0 31.825,13.118 31.825,31.101 0,17.983 -13.855,31.1 -31.825,31.1" /><path
       id="path50"
       style="fill:#f68519;fill-opacity:1;fill-rule:nonzero;stroke:none"
       d="m 281.426,262.61 c 1.488,-0.735 -7.896,-15.889 -7.896,-15.889 0,0 -6.467,12.069 -7.115,16.253 3.627,3.563 10.795,4.792 15.011,-0.364" /><path
       id="path52"
       style="fill:#3a1e16;fill-opacity:1;fill-rule:nonzero;stroke:none"
       d="m 227.437,227.111 c -11.19,12.019 -22.374,19.849 -28.032,20.141 -0.4,0.136 -0.786,0.204 -1.171,0.189 -0.495,-0.034 -0.976,-0.205 -1.416,-0.51 -0.007,0 -0.012,-0.005 -0.029,-0.015 -0.299,-0.174 -0.566,-0.442 -0.792,-0.729 -3.497,-4.121 -4.474,-17.807 -2.052,-33.875 2.873,-19.11 9.478,-34.341 14.713,-34.032 3.227,0.181 5.188,6.173 5.565,15.193 6.155,-8.66 11.915,-13.461 14.875,-11.669 2.588,1.565 2.505,7.782 0.258,16.209 8.446,-6.536 15.294,-9.264 17.459,-6.271 3.249,4.54 -5.431,20.378 -19.378,35.369" /><path
       id="path54"
       style="fill:#3a1e16;fill-opacity:1;fill-rule:nonzero;stroke:none"
       d="m 320.567,227.111 c 11.188,12.019 22.366,19.849 28.029,20.141 0.403,0.136 0.782,0.204 1.171,0.189 0.486,-0.034 0.97,-0.205 1.414,-0.51 0.009,0 0.009,-0.005 0.033,-0.015 0.292,-0.174 0.555,-0.442 0.779,-0.729 3.504,-4.121 4.486,-17.807 2.065,-33.875 -2.877,-19.11 -9.472,-34.341 -14.721,-34.032 -3.223,0.181 -5.186,6.173 -5.565,15.193 -6.158,-8.66 -11.913,-13.461 -14.873,-11.669 -2.595,1.565 -2.498,7.782 -0.263,16.209 -8.442,-6.536 -15.285,-9.264 -17.447,-6.271 -3.251,4.54 5.429,20.378 19.378,35.369" /><path
       id="path56"
       style="fill:#100f0d;fill-opacity:1;fill-rule:nonzero;stroke:none"
       d="m 262.004,272.845 c 0,-9.57 -7.757,-17.328 -17.328,-17.328 -9.57,0 -17.327,7.758 -17.327,17.328 0,9.569 7.757,17.327 17.327,17.327 9.571,0 17.328,-7.758 17.328,-17.327" /><path
       id="path58"
       style="fill:#ffffff;fill-opacity:1;fill-rule:nonzero;stroke:none"
       d="m 242.01,279.509 c 0,-1.472 -1.194,-2.666 -2.664,-2.666 -1.474,0 -2.667,1.194 -2.667,2.666 0,1.472 1.193,2.666 2.667,2.666 1.47,0 2.664,-1.194 2.664,-2.666" /><path
       id="path60"
       style="fill:#100f0d;fill-opacity:1;fill-rule:nonzero;stroke:none"
       d="m 320.651,272.845 c 0,-9.57 -7.757,-17.328 -17.327,-17.328 -9.569,0 -17.329,7.758 -17.329,17.328 0,9.569 7.76,17.327 17.329,17.327 9.57,0 17.327,-7.758 17.327,-17.327" /><path
       id="path62"
       style="fill:#ffffff;fill-opacity:1;fill-rule:nonzero;stroke:none"
       d="m 299.325,279.509 c 0,-1.472 -1.193,-2.666 -2.666,-2.666 -1.472,0 -2.666,1.194 -2.666,2.666 0,1.472 1.194,2.666 2.666,2.666 1.473,0 2.666,-1.194 2.666,-2.666" /><path
       id="path64"
       style="fill:#f68519;fill-opacity:1;fill-rule:evenodd;stroke:none"
       d="m 300.998,164.951 -1.436,-0.185 c -1.188,-0.161 -2.004,-1.416 -1.817,-2.793 l 1.4,-10.298 c 0.187,-1.375 1.309,-2.373 2.497,-2.214 l 1.434,0.193 c 1.186,0.158 2.005,1.414 1.819,2.791 l -1.404,10.299 c -0.183,1.373 -1.31,2.369 -2.493,2.207 z m -6.761,-0.898 c 1.186,0.159 2.308,-0.835 2.493,-2.214 l 1.402,-10.3 c 0.187,-1.377 -0.629,-2.631 -1.815,-2.789 l -1.438,-0.19 c -1.181,-0.157 -2.308,0.836 -2.493,2.211 l -1.403,10.299 c -0.183,1.375 0.633,2.631 1.819,2.787 l 1.435,0.196 0,0 z m -6.76,-0.905 -1.435,-0.192 c -1.189,-0.161 -2.005,-1.416 -1.82,-2.787 l 1.402,-10.302 c 0.189,-1.375 1.31,-2.367 2.496,-2.209 l 1.435,0.189 c 1.186,0.157 2.004,1.414 1.814,2.789 l -1.393,10.298 c -0.192,1.377 -1.314,2.371 -2.499,2.214 l 0,0" /><path
       id="path66"
       style="fill:#f68519;fill-opacity:1;fill-rule:evenodd;stroke:none"
       d="m 250.708,162.365 -0.971,-10.349 c -0.129,-1.384 0.742,-2.603 1.932,-2.713 l 1.442,-0.133 c 1.193,-0.108 2.274,0.935 2.403,2.317 l 0.968,10.349 c 0.13,1.382 -0.739,2.602 -1.93,2.712 l -1.444,0.126 c -1.188,0.113 -2.272,-0.93 -2.4,-2.309 z m 9.192,1.694 1.444,-0.136 c 1.189,-0.107 2.058,-1.325 1.932,-2.706 l -0.97,-10.35 c -0.128,-1.382 -1.212,-2.421 -2.399,-2.315 l -1.446,0.132 c -1.19,0.107 -2.059,1.326 -1.931,2.711 l 0.971,10.349 c 0.128,1.387 1.208,2.426 2.399,2.315 l 0,0 z m 6.793,-0.619 c -1.191,0.106 -2.271,-0.936 -2.405,-2.319 l -0.962,-10.348 c -0.131,-1.38 0.737,-2.601 1.929,-2.711 l 1.442,-0.13 c 1.193,-0.106 2.271,0.933 2.402,2.316 l 0.97,10.348 c 0.127,1.379 -0.739,2.599 -1.934,2.709 l -1.442,0.135 0,0" /><path
       id="path68"
       style="fill:#1b1919;fill-opacity:1;fill-rule:evenodd;stroke:none"
       d="m 273.992,306.936 c -24.377,0 -46.616,6.576 -46.616,6.576 l 0,26.683 c 31.164,0 62.33,0 93.495,0 l 0,-26.683 c 0,0 -20.589,-6.576 -46.879,-6.576" /><path
       id="path70"
       style="fill:#2e2d2d;fill-opacity:1;fill-rule:evenodd;stroke:none"
       d="m 346.638,343.752 -73.148,17.709 -73.153,-17.709 73.153,-17.708 73.148,17.708" /><path
       id="path72"
       style="fill:#f68519;fill-opacity:1;fill-rule:evenodd;stroke:none"
       d="m 271.782,344.143 75.2711,0 0,3.02031 -75.2711,0 0,-3.02031 z" /><path
       id="path74"
       style="fill:#f68519;fill-opacity:1;fill-rule:evenodd;stroke:none"
       d="m 344.031,324.537 3.02227,0 0,22.6262 -3.02227,0 0,-22.6262 z" /><path
       id="path76"
       style="fill:#f68519;fill-opacity:1;fill-rule:nonzero;stroke:none"
       d="m 347.97,320.68 c 0.566,0.588 0.919,1.385 0.919,2.267 0,1.812 -1.47,3.282 -3.284,3.282 -1.809,0 -3.278,-1.47 -3.278,-3.282 0,-0.832 0.322,-1.586 0.834,-2.164 l -3.219,-14.887 0.044,0 c -0.01,-0.079 -0.044,-0.157 -0.044,-0.238 0,-1.756 2.536,-3.179 5.663,-3.179 3.13,0 5.666,1.423 5.666,3.179 0,0.081 -0.032,0.159 -0.043,0.238 l 0.043,0 -3.301,14.784" /></g><path
     id="rect4164"
     d="m 467.32812,4.0507812 c 0,0 4.36391,90.2408208 -0.81274,134.9140588 -4.524,39.0409 -6.18827,76.88869 -26.27158,114.94229 0,0 39.35036,-75.87383 74.22238,-96.76465 C 546.49766,137.95334 625,138.96484 625,138.96484 L 625,4.0507812 Z"
     style="fill:#ffffff;fill-opacity:1;stroke:#000000;stroke-opacity:1" /><path
     d="m 596.20163,114.88036 c -1.03348,1.22182 -2.52907,1.95562 -4.1297,2.02284 -0.0784,0.003 -0.15824,0.006 -0.23946,0.006 -1.5138,0 -2.96738,-0.59936 -4.04287,-1.67345 l -0.7506,-0.7513 c -2.09845,-2.09705 -2.24059,-5.45094 -0.33329,-7.72164 9.22144,-10.964896 14.29919,-24.89158 14.29919,-39.214561 0,-14.89784 -5.43694,-29.239732 -15.30675,-40.383179 -2.00113,-2.262298 -1.901,-5.686903 0.22826,-7.824569 l 0.7499,-0.751298 c 1.11189,-1.117496 2.55567,-1.732959 4.21441,-1.680445 1.57402,0.04481 3.06191,0.740096 4.10939,1.917107 11.92975,13.433053 18.50099,30.738128 18.50099,48.722384 0,17.30507 -6.14132,34.115111 -17.29947,47.332511 z M 572.56684,97.21399 c -0.13793,0.0098 -0.27307,0.0154 -0.40961,0.0154 -1.5117,0 -2.96738,-0.597258 -4.04287,-1.674143 l -0.766,-0.768103 c -2.00533,-2.00113 -2.23919,-5.171568 -0.55034,-7.44717 4.27953,-5.770926 6.54043,-12.614535 6.54043,-19.792127 0,-7.720242 -2.56688,-14.961556 -7.42127,-20.941838 -1.84848,-2.273501 -1.67834,-5.574874 0.39351,-7.644621 l 0.7632,-0.764603 c 1.142,-1.142001 2.67191,-1.764466 4.32924,-1.66574 1.61323,0.08122 3.11866,0.840222 4.14023,2.090753 6.73438,8.239779 10.29272,18.244024 10.29272,28.927449 0,9.950325 -3.14733,19.42103 -9.0989,27.386336 -0.99496,1.327552 -2.51577,2.160772 -4.17034,2.278403 z m -21.96901,8.93436 c 0,2.21609 -1.28134,4.23192 -3.28667,5.17227 -0.7751,0.3655 -1.60552,0.54404 -2.43104,0.54404 -1.30724,0 -2.60189,-0.44952 -3.64796,-1.31494 l -31.25207,-25.897052 -16.6448,0 c -3.15643,0 -5.71631,-2.561277 -5.71631,-5.717712 l 0,-22.775617 c 0,-3.157835 2.55988,-5.717712 5.71631,-5.717712 l 16.6462,0 31.25207,-25.896347 c 1.70775,-1.415775 4.07577,-1.717554 6.079,-0.770204 2.00393,0.940349 3.28667,2.956182 3.28667,5.172268 l 0,77.201006 -0.001,0"
     style="fill:#393536;fill-opacity:1;fill-rule:nonzero;stroke:none"
     id="path4282" /></svg>