<?xml version="1.0" encoding="UTF-8" standalone="no"?>
<svg
   xmlns:dc="http://purl.org/dc/elements/1.1/"
   xmlns:cc="http://creativecommons.org/ns#"
   xmlns:rdf="http://www.w3.org/1999/02/22-rdf-syntax-ns#"
   xmlns:svg="http://www.w3.org/2000/svg"
   xmlns="http://www.w3.org/2000/svg"
   id="svg2"
   version="1.1"
   xml:space="preserve"
   width="629.05725"
   height="458.26883"
   viewBox="0 0 629.05725 458.26883"><metadata
     id="metadata8"><rdf:RDF><cc:Work
         rdf:about=""><dc:format>image/svg+xml</dc:format><dc:type
           rdf:resource="http://purl.org/dc/dcmitype/StillImage" /><dc:title></dc:title></cc:Work></rdf:RDF></metadata><defs
     id="defs6" /><path
     d="m 433.12875,416.67397 c 0.58625,0.045 1.17,0.0913 1.78875,0.1225 -0.64375,-0.0337 -1.2625,-0.095 -1.88,-0.1575 0.03,0.0125 0.0612,0.0238 0.0913,0.035"
     style="fill:#3a1e16;fill-opacity:1;fill-rule:nonzero;stroke:none"
     id="path16" /><path
     d="m 156.14875,355.99397 c 0.57875,-16.21875 21.195,-43.125 16.20375,-50.09625 0.0325,0.2075 0.055,0.41875 0.07,0.63375 0.66875,10.09125 -17.59875,31.75375 -18.395,45.87 0.3925,1.31625 1.07625,2.5225 2.12125,3.5925"
     style="fill:#3a1e16;fill-opacity:1;fill-rule:nonzero;stroke:none"
     id="path18" /><path
     d="m 400.0075,404.79772 c -22.53,-6.66875 -29.33875,-6.99625 -53.2375,-10.6875 -37.92875,-5.86 -74.6525,-15.845 -116.0775,-18.41625 -54.98,-3.415 -72.59375,15.08375 -112.66513,26.39125 C 75.246125,414.15147 40.11525,440.16147 0,454.30647 l 0,3.96238 c 40.751,-14.01488 76.226625,-40.53238 119.54738,-52.74863 40.07137,-11.3075 57.68512,-29.80875 112.66512,-26.39375 41.425,2.57375 78.14875,12.5575 116.07875,18.41875 23.89875,3.68875 30.705,4.0175 53.23625,10.685 12.28625,3.63875 18.23875,6.87375 28.38875,8.13 -0.86625,-0.1925 -1.71125,-0.425 -2.5275,-0.7025 -9.35,-2.34375 -16.41375,-7.61125 -27.38125,-10.86"
     style="fill:#3a1e16;fill-opacity:1;fill-rule:nonzero;stroke:none"
     id="path20" /><path
     d="m 475.905,360.39897 c 0.3825,1.68 -0.31375,3.225 -1.81625,4.66625 -1.535,2.11375 -5.0425,3.8075 -9.64625,5.23375 -15.84375,5.975 -43.0225,10.14375 -49.0325,15.60625 -7.415,6.735 -9.38625,11.75875 -6.56375,16.26375 -0.75875,-3.2875 1.8675,-7.18375 8.08375,-12.83 8.825,-8.02125 64.3325,-16.81875 58.975,-28.94"
     style="fill:#3a1e16;fill-opacity:1;fill-rule:nonzero;stroke:none"
     id="path22" /><path
     d="m 172.3525,305.89772 c -36.6975,13.29875 -31.16125,48.3925 -74.250875,68.2075 -20.61925,9.4875 -42.037625,19.66 -63.3375,29.6725 -10.626875,5.0025 -22.4316,10.0875 -34.764125,15.685 l 0,3.91875 c 12.539125,-5.02125 24.11325,-9.64875 35.214875,-14.875 21.29925,-10.0125 42.71775,-20.18375 63.337375,-29.6725 43.09025,-19.815 39.299,-58.62875 73.80025,-72.93625"
     style="fill:#6f4420;fill-opacity:1;fill-rule:nonzero;stroke:none"
     id="path24" /><path
     d="m 251.98,362.47147 c -20.07625,-2.56 -76.0475,2.2725 -90.90125,-3.425 -2.14625,-0.82375 -3.76,-1.855 -4.93,-3.0525 -1.045,-1.07 -1.72875,-2.27625 -2.12125,-3.5925 -0.285,5.04625 1.6575,9.13 7.50125,11.37375 14.85375,5.69875 70.82625,0.865 90.9025,3.425 32.48,4.14375 89.53875,19.2825 118.79875,15.03 22.24125,-3.235 59.11,-11.31625 86.00125,-17.4875 -26.75625,4.34875 -63.9525,9.485 -86.45,12.7575 C 341.52,381.75272 284.46,366.61522 251.98,362.47147"
     style="fill:#6f4420;fill-opacity:1;fill-rule:nonzero;stroke:none"
     id="path26" /><path
     d="m 271.63673,257.4097 c 4.80071,0.42645 8.68855,0.18961 10.91057,-1.184 -2.57016,1.0134 -6.3912,1.3114 -10.91057,1.184"
     style="fill:#6f4420;fill-opacity:1;fill-rule:nonzero;stroke:none"
     id="path28" /><path
     d="m 433.0375,416.63897 c -1.99375,-0.19875 -3.865,-0.535 -5.64875,-0.98125 0.81625,0.2775 1.66125,0.51 2.5275,0.7025 1.22125,0.27125 2.48,0.47875 3.81875,0.55 -0.205,-0.0787 -0.4025,-0.1575 -0.60625,-0.23625 -0.03,-0.0113 -0.0613,-0.0225 -0.0913,-0.035"
     style="fill:#6f4420;fill-opacity:1;fill-rule:nonzero;stroke:none"
     id="path30" /><path
     d="m 475.905,360.39897 c -5.23625,1.23375 -11.61625,2.72375 -18.67375,4.34375 -26.89125,6.17125 -63.76,14.2525 -86.00125,17.4875 -29.26,4.2525 -86.31875,-10.88625 -118.79875,-15.03 -20.07625,-2.56 -76.04875,2.27375 -90.9025,-3.425 -5.84375,-2.24375 -7.78625,-6.3275 -7.50125,-11.37375 0.79625,-14.11625 19.06375,-35.77875 18.395,-45.87 -0.015,-0.21625 -0.0375,-0.4275 -0.07,-0.63375 -34.50125,14.3075 -30.71,53.12125 -73.80025,72.93625 -20.619625,9.48875 -42.038125,19.66 -63.337375,29.6725 C 24.11325,413.73272 12.539125,418.36022 0,423.38147 l 0,30.925 c 40.11525,-14.145 75.246125,-40.155 118.02737,-52.22125 40.07138,-11.3075 57.68513,-29.80625 112.66513,-26.39125 41.425,2.57125 78.14875,12.55625 116.0775,18.41625 23.89875,3.69125 30.7075,4.01875 53.2375,10.6875 10.9675,3.24875 18.03125,8.51625 27.38125,10.86 1.78375,0.44625 3.655,0.7825 5.64875,0.98125 0.6175,0.0625 1.23625,0.12375 1.88,0.1575 -13.9875,-5.31 -22.95375,-9.6525 -26.07125,-14.6275 -2.8225,-4.505 -0.85125,-9.52875 6.56375,-16.26375 6.01,-5.4625 33.18875,-9.63125 49.0325,-15.60625 4.23,-1.59625 7.6525,-3.32125 9.64625,-5.23375 1.5025,-1.44125 2.19875,-2.98625 1.81625,-4.66625"
     style="fill:#593117;fill-opacity:1;fill-rule:nonzero;stroke:none"
     id="path32" /><path
     d="m 389.39091,226.94574 c 1.98031,-13.02751 26.37498,-51.18732 20.47066,-54.97218 -4.77347,-3.0406 -30.43315,6.74527 -40.17958,11.03353 -14.08214,-12.6909 -35.88192,-10.06761 -59.86438,-14.4524 -22.96187,-4.19818 -41.48552,-14.49638 -58.5102,-8.43826 -7.83595,-6.50159 -26.39051,-24.24805 -32.24184,-23.02674 -6.88941,1.45718 0.55119,43.25953 -2.21147,56.149 -4.03796,18.61734 -14.6744,32.29109 -18.69316,50.94243 l 0.58751,-0.899 c -12.73738,77.79141 19.72411,113.60745 75.69751,123.84125 55.5295,10.15265 97.43206,-11.54871 113.32804,-87.21106 l 0.25761,1.12086 c 2.82646,-18.84394 -1.44341,-35.23795 1.3599,-54.0874"
     style="fill:#6f4420;fill-opacity:1;fill-rule:nonzero;stroke:none"
     id="path34" /><path
     d="m 336.08542,343.09005 c -5.32767,29.13946 -28.98244,30.23928 -59.82986,24.59935 -30.83264,-5.63724 -57.17655,-15.87848 -51.84889,-45.01796 5.3279,-29.14069 34.64893,-48.17258 65.4865,-42.53444 30.84003,5.63857 51.52013,33.81235 46.19225,62.95305"
     style="fill:#c2955c;fill-opacity:1;fill-rule:nonzero;stroke:none"
     id="path36" /><path
     d="m 279.8224,327.89322 -0.12425,-0.0226 c -5.11029,-0.93434 -8.45494,-4.9857 -8.69675,-9.32749 -0.0487,-0.8247 0.64434,-1.83529 1.48315,-1.89159 0.83991,-0.0485 1.6046,0.45347 1.64356,1.29674 0.20152,3.49194 3.55259,5.31181 6.34291,5.84103 3.17409,0.59177 7.19128,-0.1821 8.62245,-3.2421 0.35641,-0.77478 1.27063,-1.11846 2.02328,-0.7661 0.77456,0.35764 0.99705,1.8444 0.63439,2.61168 -2.09451,4.53347 -7.54521,6.30199 -11.9288,5.50052"
     style="fill:#6f4420;fill-opacity:1;fill-rule:nonzero;stroke:none"
     id="path38" /><path
     d="m 247.75153,322.0296 -0.11801,-0.0215 c -5.10168,-0.93277 -8.44756,-4.98434 -8.68691,-9.32569 -0.05,-0.82493 0.65418,-1.83349 1.48191,-1.89182 0.83378,-0.0496 1.59724,0.45213 1.63865,1.29586 0.21135,3.49372 3.56613,5.31427 6.34784,5.84192 3.1753,0.59199 7.18635,-0.18301 8.61506,-3.24345 0.34904,-0.77614 1.26819,-1.11891 2.03559,-0.76385 0.75488,0.35404 1.00564,1.84596 0.64051,2.6128 -2.11786,4.5292 -7.56118,6.29907 -11.95461,5.4958"
     style="fill:#6f4420;fill-opacity:1;fill-rule:nonzero;stroke:none"
     id="path40" /><path
     d="m 311.865,333.75167 -0.10813,-0.0197 c -5.1029,-0.93299 -8.45738,-4.98614 -8.72011,-9.33175 -0.0278,-0.82089 0.67016,-1.83056 1.49666,-1.88912 0.8473,-0.0471 1.59478,0.45168 1.65712,1.29922 0.2015,3.49194 3.53784,5.3091 6.33061,5.83877 3.17285,0.59154 7.19741,-0.18097 8.6286,-3.24097 0.35764,-0.77456 1.27431,-1.11779 2.02328,-0.7661 0.75611,0.35428 1.00318,1.84551 0.63437,2.61167 -2.1068,4.53123 -7.5452,6.30199 -11.94231,5.49806"
     style="fill:#6f4420;fill-opacity:1;fill-rule:nonzero;stroke:none"
     id="path42" /><path
     d="m 291.76214,350.29337 -0.118,-0.0215 c -5.1103,-0.93434 -8.57519,-4.25159 -8.82294,-8.58176 -0.0553,-0.84495 0.58608,-1.4749 1.41738,-1.52495 0.84618,-0.0549 1.5586,0.63567 1.6008,1.48207 0.19926,3.50423 3.53676,5.39152 6.31163,5.92173 3.19968,0.59771 7.20519,-0.12619 8.6233,-3.19111 0.34758,-0.77514 1.26825,-1.09858 2.04113,-0.72473 0.76596,0.34209 1.10399,1.09263 0.76112,1.8559 -2.10546,4.52385 -7.41481,5.58881 -11.81438,4.78443"
     style="fill:#6f4420;fill-opacity:1;fill-rule:nonzero;stroke:none"
     id="path44" /><path
     d="m 260.71922,344.6177 -0.12425,-0.0228 c -5.12258,-0.93658 -8.59976,-4.25609 -8.82907,-8.58289 -0.06,-0.84585 0.57254,-1.47735 1.42229,-1.52404 0.84003,-0.056 1.56228,0.63635 1.60818,1.48343 0.18327,3.5013 3.52322,5.38903 6.32147,5.92351 3.1714,0.59254 7.18305,-0.13023 8.59871,-3.19562 0.36848,-0.77131 1.2781,-1.09677 2.04358,-0.72427 0.74752,0.33873 1.11875,1.09533 0.75128,1.85411 -2.10052,4.52474 -7.39882,5.59173 -11.79225,4.78848"
     style="fill:#6f4420;fill-opacity:1;fill-rule:nonzero;stroke:none"
     id="path46" /><path
     d="m 341.73972,199.17526 c -15.70958,-2.87223 -30.633,1.90287 -39.59395,13.87012 -4.1443,-14.36332 -16.39542,-24.10685 -32.12838,-26.98336 -22.09007,-4.03879 -42.05688,8.97866 -46.09635,31.07241 -4.04059,22.09992 10.02908,41.33654 32.11916,45.37535 15.71327,2.8729 30.63086,-1.89817 39.59182,-13.86542 4.14718,14.38926 16.4144,24.14209 32.12399,27.01432 22.09623,4.03992 42.08169,-8.97538 46.12453,-31.08758 4.04286,-22.11222 -10.04459,-41.35592 -32.14082,-45.39584"
     style="fill:#ffffff;fill-opacity:1;fill-rule:nonzero;stroke:none"
     id="path48" /><path
     d="m 305.74293,246.59785 c 1.66442,1.2383 -13.28116,17.76225 -13.28116,17.76225 0,0 -5.23863,-16.29413 -5.0948,-21.58453 5.26084,-3.56571 14.35103,-3.46545 18.37596,3.82228"
     style="fill:#f68519;fill-opacity:1;fill-rule:nonzero;stroke:none"
     id="path50" /><path
     d="m 229.80179,280.73581 c -7.22953,-19.21189 -16.44181,-33.57745 -22.84513,-36.60253 -0.39788,-0.34723 -0.8119,-0.60921 -1.26418,-0.77472 -0.58848,-0.19583 -1.22589,-0.22645 -1.87948,-0.0829 -0.009,-0.002 -0.016,-8.3e-4 -0.0407,0.004 -0.42835,0.0591 -0.86436,0.24223 -1.26199,0.46672 -6.00077,3.10385 -13.63102,18.46411 -18.46262,38.19298 -5.75501,23.46038 -5.3525,44.20834 0.84719,46.33758 3.81717,1.32349 8.93064,-4.67326 13.65088,-14.92349 3.00333,12.93656 7.38288,21.22356 11.65651,20.55753 3.7357,-0.58027 6.59269,-7.80804 7.9973,-18.61895 6.66112,11.56888 13.28332,17.97577 17.20819,15.54348 5.91304,-3.70611 3.39963,-26.14148 -5.606,-50.09927"
     style="fill:#3a1e16;fill-opacity:1;fill-rule:nonzero;stroke:none"
     id="path52" /><path
     d="m 284.16228,228.09389 c -2.15148,11.76745 -13.43374,19.56292 -25.20241,17.41122 -11.76742,-2.15149 -19.56145,-13.43474 -17.40998,-25.20216 2.15127,-11.76623 13.43351,-19.5617 25.20095,-17.41022 11.76867,2.1517 19.5627,13.43496 17.41144,25.20116"
     style="fill:#100f0d;fill-opacity:1;fill-rule:nonzero;stroke:none"
     id="path56" /><path
     d="m 261.07549,215.40478 c -0.33094,1.80999 -2.06753,3.00973 -3.87508,2.67924 -1.81245,-0.33137 -3.01094,-2.06774 -2.68002,-3.87774 0.33092,-1.80998 2.06628,-3.00995 3.87873,-2.67857 1.80755,0.33049 3.00728,2.06707 2.67637,3.87707"
     style="fill:#ffffff;fill-opacity:1;fill-rule:nonzero;stroke:none"
     id="path58" /><path
     d="m 356.27563,241.27863 c -2.15147,11.76743 -13.43373,19.56291 -25.20117,17.41143 -11.76621,-2.15125 -19.56391,-13.43519 -17.41243,-25.20263 2.15125,-11.7662 13.4372,-19.56101 25.2034,-17.40976 11.76743,2.15149 19.56146,13.43474 17.4102,25.20096"
     style="fill:#100f0d;fill-opacity:1;fill-rule:nonzero;stroke:none"
     id="path60" /><path
     d="m 331.55097,228.29006 c -0.33092,1.80999 -2.06628,3.00995 -3.87751,2.6788 -1.80999,-0.33094 -3.00972,-2.06753 -2.6788,-3.87751 0.33094,-1.81 2.06753,-3.00974 3.87751,-2.6788 1.81123,0.33113 3.00974,2.06751 2.6788,3.87751"
     style="fill:#ffffff;fill-opacity:1;fill-rule:nonzero;stroke:none"
     id="path62" /><path
     d="m 313.89144,370.07751 -1.80733,-0.0954 c -1.49698,-0.0689 -2.78247,1.29061 -2.86211,3.02584 l -0.5937,12.97734 c -0.0794,1.73275 1.07609,3.21216 2.57261,3.28372 l 1.80668,0.085 c 1.49383,0.0724 2.78325,-1.28792 2.86412,-3.02292 l 0.58903,-12.97946 c 0.0836,-1.72942 -1.07823,-3.20748 -2.56928,-3.27424 z m -8.51533,-0.41575 c 1.49406,0.0712 2.65024,1.54561 2.5677,3.28285 l -0.59167,12.98023 c -0.0795,1.73523 -1.36492,3.09372 -2.85877,3.02137 l -1.8109,-0.0896 c -1.48747,-0.0725 -2.65001,-1.54683 -2.56837,-3.27916 l 0.59026,-12.97922 c 0.0841,-1.73188 1.36984,-3.09282 2.86324,-3.01802 l 1.80857,0.0811 0,0 z m -8.51566,-0.40688 -1.80768,-0.0865 c -1.49822,-0.0689 -2.78372,1.29039 -2.86446,3.01778 l -0.59215,12.98271 c -0.0769,1.7332 1.07866,3.20501 2.5725,3.27736 l 1.807,0.0902 c 1.49361,0.0736 2.78204,-1.28816 2.85753,-3.02158 l 0.60226,-12.97578 c 0.0732,-1.73635 -1.08269,-3.21082 -2.57506,-3.28417 l 0,0"
     style="fill:#f68519;fill-opacity:1;fill-rule:evenodd;stroke:none"
     id="path64" /><path
     d="m 244.04201,363.11306 -1.47755,12.90879 c -0.19653,1.72635 0.86089,3.272 2.34528,3.43983 l 1.79872,0.20302 c 1.48819,0.16541 2.86576,-1.11049 3.06225,-2.83433 l 1.4738,-12.90887 c 0.19773,-1.72382 -0.85717,-3.27068 -2.3428,-3.43854 l -1.80141,-0.1943 c -1.4818,-0.17155 -2.86314,1.10429 -3.05829,2.8244 z m 11.53083,-1.88255 1.80115,0.20681 c 1.48321,0.16406 2.53815,1.70841 2.34545,3.43109 l -1.47633,12.91005 c -0.19524,1.72387 -1.57645,2.99471 -3.05719,2.83196 l -1.80376,-0.20188 c -1.48446,-0.16408 -2.53937,-1.7097 -2.34407,-3.43731 l 1.47755,-12.90877 c 0.19536,-1.73014 1.5716,-3.00104 3.0572,-2.83195 l 0,0 z m 8.47367,0.94692 c -1.48572,-0.16286 -2.86203,1.11182 -3.06479,2.83679 l -1.46626,12.90775 c -0.19892,1.7213 0.85469,3.26938 2.34157,3.43726 l 1.7988,0.19927 c 1.48824,0.1629 2.86197,-1.10807 3.06097,-2.83312 l 1.47628,-12.90755 c 0.19389,-1.72015 -0.85724,-3.26693 -2.34788,-3.4349 l -1.79869,-0.2055 0,0"
     style="fill:#f68519;fill-opacity:1;fill-rule:evenodd;stroke:none"
     id="path66" /><path
     d="m 306.56709,188.8701 c -29.97438,-5.48032 -55.84144,-18.56594 -55.84144,-18.56594 l 5.99874,-32.80988 c 38.31978,7.00614 76.64204,14.01273 114.96304,21.01909 l -5.99873,32.80988 c 0,0 -26.79497,3.45725 -59.12161,-2.45315"
     style="fill:#1b1919;fill-opacity:1;fill-rule:evenodd;stroke:none"
     id="path68" /><path
     d="m 404.17065,159.93243 -85.96279,-38.22006 -93.93142,5.3294 85.96916,38.21995 93.92505,-5.32929"
     style="fill:#2e2d2d;fill-opacity:1;fill-rule:evenodd;stroke:none"
     id="path70" /><path
     d="m 312.21434,143.11682 65.31059,19.17254 0.47913,-4.20773 -65.31058,-19.17256 -0.47914,4.20775 z"
     style="fill:#f68519;fill-opacity:1;fill-rule:evenodd;stroke:none"
     id="path72" /><path
     d="m 374.06329,186.22973 3.77636,0.10575 0.79139,-28.27167 -3.77637,-0.10575 -0.79138,28.27166 z"
     style="fill:#f68519;fill-opacity:1;fill-rule:evenodd;stroke:none"
     id="path74" /><path
     d="m 378.07716,189.47672 c 0.7316,-0.71104 1.20578,-1.69202 1.24249,-2.79391 0.0754,-2.26375 -1.69986,-4.16143 -3.96611,-4.23694 -2.25999,-0.0753 -4.1564,1.70004 -4.23183,3.96377 -0.0346,1.03942 0.33638,1.99479 0.95183,2.73822 l -4.64123,18.46443 0.055,0.002 c -0.0157,0.0983 -0.0615,0.1943 -0.0649,0.29551 -0.0731,2.1938 3.0359,4.07713 6.9425,4.20728 3.91032,0.1303 7.13778,-1.54191 7.21088,-3.73568 0.004,-0.10125 -0.0335,-0.19993 -0.0438,-0.29913 l 0.0538,0.002 -3.50856,-18.60716"
     style="fill:#f68519;fill-opacity:1;fill-rule:nonzero;stroke:none"
     id="path76" /><rect
     transform="matrix(0.92527943,0.37928614,-0.37928614,0.92527943,0,0)"
     y="-96.329376"
     x="498.17517"
     height="264.5593"
     width="9.8798075"
     id="rect3558"
     style="fill:#ff7f2a;fill-rule:evenodd;stroke:none;stroke-width:0.80000001px;stroke-linecap:butt;stroke-linejoin:miter;stroke-opacity:1" /><rect
     transform="matrix(0.92527943,0.37928614,-0.37928614,0.92527943,0,0)"
     y="-156.70596"
     x="384.00845"
     height="142.70833"
     width="230.90695"
     id="rect3611"
     style="fill:#ffffff;fill-rule:evenodd;stroke:#000000;stroke-width:1px;stroke-linecap:butt;stroke-linejoin:miter;stroke-opacity:1" /><path
     d="m 399.25672,322.63691 c -18.69051,-8.48281 -32.41248,-18.61855 -35.00912,-25.21396 -0.32134,-0.42355 -0.55263,-0.84565 -0.68935,-1.31269 -0.15286,-0.58949 -0.14255,-1.23105 0.0425,-1.87848 -0.004,-0.01 0.001,-0.0125 0.005,-0.0451 0.0901,-0.4152 0.30326,-0.83341 0.55439,-1.21295 3.49141,-5.79049 19.32099,-12.39335 39.326,-15.90981 23.79141,-4.18498 44.46326,-2.42202 46.1831,3.92158 1.06636,3.89164 -5.25489,8.59939 -15.79423,12.63327 12.71062,3.85646 20.6876,8.76895 19.74019,12.98913 -0.82346,3.6974 -8.23003,6.05319 -19.10544,6.75343 11.10109,7.40745 17.05368,14.43322 14.36575,18.18496 -4.08855,5.65716 -26.30837,1.66442 -49.6184,-8.90943"
     style="fill:#3a1e16;fill-opacity:1;fill-rule:nonzero;stroke:none"
     id="path54" /><rect
     transform="matrix(0.98880849,0.14919036,-0.36805925,0.92980234,0,0)"
     y="133.11147"
     x="309.16177"
     height="11.971598"
     width="120.03991"
     id="rect4853-3"
     style="fill:#aa4400;fill-opacity:1;stroke:none" /><text
     transform="matrix(0.92505038,0.37984444,-0.37984444,0.92505038,0,0)"
     id="text4202"
     y="-22.026384"
     x="462.70767"
     style="font-style:normal;font-weight:normal;font-size:160.1739502px;line-height:125%;font-family:sans-serif;letter-spacing:0px;word-spacing:0px;fill:#000000;fill-opacity:1;stroke:none;stroke-width:1px;stroke-linecap:butt;stroke-linejoin:miter;stroke-opacity:1"
     xml:space="preserve"><tspan
       y="-22.026384"
       x="462.70767"
       id="tspan4204">?</tspan></text>
</svg>